<svg id="Camada_1" data-name="Camada 1" xmlns="http://www.w3.org/2000/svg" viewBox="0 0 1414.47 795.64"><defs><style>.cls-1,.cls-2{fill:#fff;}.cls-2{fill-rule:evenodd;}</style></defs><title>Logo</title><path class="cls-1" d="M886.23,389.59q-7.18,19.88-23,19.88h-1c-10.06,0-19.16-6.63-23.48-19.88l-55.1-165.18L730.5,389.59c-4.31,13.25-12.46,19.88-23,19.88h-1c-10.06,0-19.17-6.63-23.48-19.88L613.58,196.37c-3.83-11.21,2.4-26,14.37-29.06,11.51-3.57,22.53,2.55,26.84,15.3L706.54,338.1l49.84-150.4c4.79-14.27,13.41-21.41,26.35-21.41h2.4c12.93,0,21.08,7.14,25.87,21.41l49.84,150.4,51.27-155.49c4.31-12.75,15.81-18.87,27.31-15.3,12,3.06,18.21,17.85,14.38,29.06Z"/><path class="cls-1" d="M1039.69,189.74a23.39,23.39,0,0,0-23.45-23.45c-12.75,0-23,10.71-23,23.45V386c0,12.75,10.2,23.45,23,23.45A23.39,23.39,0,0,0,1039.69,386Z"/><path class="cls-1" d="M1169.88,386a23.38,23.38,0,0,1-23.45,23.45c-12.74,0-22.94-10.7-22.94-23.45V208.09h-28.55a19.9,19.9,0,0,1-19.88-19.88c0-10.71,9.17-19.37,19.88-19.37h28.55V142.33c0-62.71,27-105.53,91.26-105.53h6.62a22.31,22.31,0,0,1,22.44,22.43c0,12.23-10.2,21.92-22.44,21.92h-6.62c-38.24,0-45.38,30.59-44.87,61.18v26.51h41.3a19.9,19.9,0,0,1,19.88,19.88c0,10.71-9.18,19.37-19.88,19.37h-41.3Z"/><path class="cls-1" d="M1323.07,189.74a23.39,23.39,0,0,0-23.45-23.45c-12.74,0-22.94,10.71-22.94,23.45V386c0,12.75,10.2,23.45,22.94,23.45A23.38,23.38,0,0,0,1323.07,386Z"/><path class="cls-1" d="M124.22,447.27h45.69V621.32H250.1v40.1H124.22Z"/><path class="cls-1" d="M318.56,447.27V661.42H273.18V447.27Z"/><path class="cls-1" d="M387.27,447.27,425.5,587.76l37.92-140.49H511L445.7,661.42H405.3L340,447.27Z"/><path class="cls-1" d="M691.47,661.42h-54.7l-47.86-74H578.65v74H533V447.27h87.65c48.48,0,71.17,35.12,71.17,70.24,0,30.46-16.78,60.3-53.46,68.07ZM578.65,487.36v60.3h38.54c17.72,0,27-16.16,27-30.15,0-13.36-8.7-30.15-25.8-30.15Z"/><path class="cls-1" d="M726.05,447.27H861.57v40.09H771.43v48.8h78.94v39.47H771.43v45.69h92.93v40.1H726.05Z"/><path class="cls-2" d="M896.35,509.34A61.75,61.75,0,0,0,958,571h90.81c16.76,0,24.29,14.41,24.29,28.7,0,14.09-7.53,28.3-24.29,28.3H896.35v33.38h152.47a61.74,61.74,0,0,0,61.68-61.68c0-34.24-27.67-62.08-61.68-62.08H958c-16.76,0-24.27-14.23-24.27-28.31,0-14.29,7.51-28.69,24.27-28.69H1110.5V447.27H958C924,447.27,896.35,475.11,896.35,509.34Z"/><path class="cls-2" d="M1269.65,547.7H1155v-67h114.67c17.06,0,24.69,14.4,24.69,28.69V519c0,14.29-7.63,28.7-24.69,28.7Zm0-100.43H1117.58V661.42H1155V581.08h114.67A62.15,62.15,0,0,0,1331.74,519v-9.66A62.15,62.15,0,0,0,1269.65,447.27Z"/><path class="cls-1" d="M522.1,236.46l59.61-59.61C441,45.7,218.08,46.89,76.2,176.85l59.62,59.61C244.31,137.5,413.61,137.5,522.1,236.46Zm-63.19,63.19,40.54-40.54c-95.38-85.84-245.6-85.84-341,0L199,299.65C272.92,237.65,385,237.65,458.91,299.65Zm-57.23,57.23,33.39-33.39c-60.81-51.26-151.42-51.26-212.22,0l33.38,33.39C299.15,325.88,358.76,325.88,401.68,356.88Zm-91.8,53.65a52.64,52.64,0,0,1,38.15,0l29.81-29.81a86.18,86.18,0,0,0-97.76,0Z"/><path class="cls-1" d="M124.85,745.34l3.69-8.35a23.31,23.31,0,0,0,11.21,3.1c3.25,0,4.42-.67,4.42-1.84,0-4.27-18.78-.82-18.78-13.49,0-6.31,5.29-11.46,15.82-11.46a27,27,0,0,1,12.81,3l-3.45,8.3a21,21,0,0,0-9.46-2.52c-3.35,0-4.42,1-4.42,2.14,0,4.07,18.79.67,18.79,13.2,0,6.21-5.29,11.45-15.82,11.45C134,748.83,128.25,747.42,124.85,745.34Z"/><path class="cls-1" d="M182,742.13H169.12l-2.28,5.92H155.19l14.85-34H181.3l14.85,34H184.31Zm-11.8-30.82H165c.1-5.09,2.57-8.39,6.7-8.39,3.59,0,5.43,2.86,7.18,2.86a2.16,2.16,0,0,0,2.19-2.23h5.19c-.1,5-2.58,8.25-6.7,8.25-3.59,0-5.44-2.87-7.18-2.87A2.24,2.24,0,0,0,170.23,711.31Zm8.64,22.57-3.3-8.54-3.3,8.54Z"/><path class="cls-1" d="M196.16,731.07c0-10.29,8.1-17.77,19.17-17.77s19.17,7.48,19.17,17.77-8.11,17.76-19.17,17.76S196.16,741.36,196.16,731.07Zm26.79,0c0-5.29-3.4-8.5-7.62-8.5s-7.62,3.21-7.62,8.5,3.39,8.49,7.62,8.49S223,736.36,223,731.07Z"/><path class="cls-1" d="M285.07,726.89c0,7.87-6,12.82-15.48,12.82h-4.9v8.34H253.24v-34h16.35C279.06,714.08,285.07,719,285.07,726.89Zm-11.55,0c0-2.47-1.5-4-4.65-4h-4.18v8h4.18C272,730.87,273.52,729.37,273.52,726.89Z"/><path class="cls-1" d="M310.27,742.13H297.36l-2.28,5.92H283.43l14.85-34h11.26l14.85,34H312.55Zm-3.16-8.25-3.3-8.54-3.3,8.54Z"/><path class="cls-1" d="M325.22,732.76V714.08h11.45v18.35c0,5.19,2,7.13,5.2,7.13s5.19-1.94,5.19-7.13V714.08h11.26v18.68c0,10.2-6.12,16.07-16.55,16.07S325.22,743,325.22,732.76Z"/><path class="cls-1" d="M363.57,714.08H375v25.09h15.34v8.88H363.57Z"/><path class="cls-1" d="M391.67,731.07c0-10.29,8.11-17.77,19.17-17.77S430,720.78,430,731.07s-8.1,17.76-19.17,17.76S391.67,741.36,391.67,731.07Zm26.79,0c0-5.29-3.4-8.5-7.62-8.5s-7.62,3.21-7.62,8.5,3.4,8.49,7.62,8.49S418.46,736.36,418.46,731.07Z"/><path class="cls-1" d="M444.24,742.23c0,1.55-.2,2.72-1.9,6.36L439,755.82h-6.8l2.43-8.2a5.65,5.65,0,0,1-3.16-5.39c0-3.79,2.72-6.21,6.41-6.21S444.24,738.44,444.24,742.23Z"/><path class="cls-1" d="M461.18,731.07c0-10.44,8-17.77,18.93-17.77,6.65,0,11.89,2.43,15.24,6.8l-7.23,6.45c-2-2.52-4.37-4-7.43-4-4.76,0-8,3.3-8,8.5s3.2,8.49,8,8.49c3.06,0,5.43-1.46,7.43-4l7.23,6.46c-3.35,4.36-8.59,6.79-15.24,6.79C469.19,748.83,461.18,741.5,461.18,731.07Z"/><path class="cls-1" d="M498.65,714.08H510.1v34H498.65Z"/><path class="cls-1" d="M515.64,714.08h16.74c11.36,0,19.17,6.45,19.17,17s-7.81,17-19.17,17H515.64Zm16.26,25c4.8,0,8.1-2.86,8.1-8s-3.3-8.06-8.1-8.06h-4.81v16.11Z"/><path class="cls-1" d="M578.4,742.13H565.49l-2.28,5.92H551.56l14.85-34h11.26l14.85,34H580.68Zm-3.16-8.25-3.3-8.54-3.3,8.54Z"/><path class="cls-1" d="M594.37,714.08h16.74c11.36,0,19.17,6.45,19.17,17s-7.81,17-19.17,17H594.37Zm16.26,25c4.8,0,8.1-2.86,8.1-8s-3.3-8.06-8.1-8.06h-4.81v16.11Z"/><path class="cls-1" d="M662.71,739.42v8.63H634.46v-34h27.62v8.64H645.72v4h14.37V735H645.72v4.47Z"/><path class="cls-1" d="M681.69,714.08h11.45v34H681.69Z"/><path class="cls-1" d="M732.16,714.08v34h-9.41l-12.91-15.43v15.43H698.68v-34h9.41L721,729.51V714.08Z"/><path class="cls-1" d="M745.08,723h-10v-8.88h31.35V723h-10v25.09H745.08Z"/><path class="cls-1" d="M797.69,739.42v8.63H769.44v-34h27.62v8.64H780.71v4h14.36V735H780.71v4.47Z"/><path class="cls-1" d="M802.11,714.08h11.46v25.09H828.9v8.88H802.11Z"/><path class="cls-1" d="M832.06,714.08h11.46v34H832.06Z"/><path class="cls-1" d="M871.52,730.15h10v14.36a27.41,27.41,0,0,1-14.81,4.32c-11,0-19-7.33-19-17.76s8-17.77,19.22-17.77c6.7,0,12.08,2.33,15.53,6.56l-7.33,6.45a9.69,9.69,0,0,0-7.62-3.74c-5,0-8.25,3.26-8.25,8.5,0,5.09,3.2,8.49,8.11,8.49a10.55,10.55,0,0,0,4.17-.83Z"/><path class="cls-1" d="M914.62,739.42v8.63H886.37v-34H914v8.64H897.64v4H912V735H897.64v4.47Z"/><path class="cls-1" d="M952.53,714.08v34h-9.42L930.2,732.62v15.43H919v-34h9.42l12.91,15.43V714.08Z"/><path class="cls-1" d="M965.44,723h-10v-8.88h31.36V723h-10v25.09H965.44Z"/><path class="cls-1" d="M1018.06,739.42v8.63H989.81v-34h27.62v8.64h-16.36v4h14.37V735h-14.37v4.47Z"/><path class="cls-1" d="M1065.28,739.42v8.63H1037v-34h27.61v8.64H1048.3v4h14.36V735H1048.3v4.47Z"/><path class="cls-1" d="M1117.75,714.08v34H1106.3V735.53h-10.58v12.52h-11.46v-34h11.46v12h10.58v-12Z"/><path class="cls-1" d="M1123,732.76V714.08h11.45v18.35c0,5.19,2,7.13,5.2,7.13s5.19-1.94,5.19-7.13V714.08h11.26v18.68c0,10.2-6.12,16.07-16.55,16.07S1123,743,1123,732.76Z"/><path class="cls-1" d="M1191.68,748.05l-.1-15.48L1184.2,745h-5l-7.37-11.88v14.94h-10.44v-34h9.42l11.06,18.1,10.78-18.1H1202l.09,34Z"/><path class="cls-1" d="M1230.8,742.13h-12.91l-2.28,5.92H1204l14.85-34h11.26l14.85,34h-11.84Zm-3.15-8.25-3.3-8.54-3.3,8.54Z"/><path class="cls-1" d="M1280.26,714.08v34h-9.41l-12.91-15.43v15.43h-11.17v-34h9.42l12.91,15.43V714.08Z"/><path class="cls-1" d="M1309,742.13H1296l-2.28,5.92h-11.65l14.85-34h11.26l14.85,34h-11.84Zm-3.15-8.25-3.3-8.54-3.31,8.54Z"/></svg>