<svg xmlns="http://www.w3.org/2000/svg" width="552.523" height="274.877" viewBox="0 0 552.523 274.877"><g transform="translate(235.987)"><path d="M1025.523,420.359q-3.162,8.75-10.121,8.75h-.422c-4.428,0-8.434-2.917-10.332-8.75L980.4,347.669l-23.406,72.69c-1.9,5.833-5.483,8.75-10.122,8.75h-.422c-4.428,0-8.434-2.917-10.332-8.75l-30.577-85.03c-1.688-4.934,1.054-11.441,6.325-12.787,5.061-1.571,9.911,1.122,11.81,6.732L946.446,397.7l21.931-66.183c2.109-6.282,5.9-9.423,11.6-9.423h1.055c5.693,0,9.278,3.141,11.387,9.423l21.931,66.183,22.563-68.426c1.9-5.61,6.958-8.3,12.019-6.732,5.272,1.346,8.013,7.853,6.326,12.787Z" transform="translate(-905.041 -265.107)" fill="#fff"/><path d="M1154.167,332.414a10.209,10.209,0,1,0-20.416,0V418.79a10.209,10.209,0,1,0,20.416,0Z" transform="translate(-966.154 -265.107)" fill="#fff"/><path d="M1224.582,398.01a10.209,10.209,0,1,1-20.416,0v-78.3H1191.6a8.638,8.638,0,1,1,0-17.274h12.564V290.768c0-27.6,11.89-46.441,40.159-46.441h2.917a9.76,9.76,0,1,1,0,19.519h-2.917c-16.826,0-19.967,13.462-19.743,26.922v11.668h18.172a8.638,8.638,0,1,1,0,17.274h-18.172Z" transform="translate(-979.274 -244.327)" fill="#fff"/><path d="M1324.35,332.414a10.209,10.209,0,1,0-20.416,0V418.79a10.209,10.209,0,1,0,20.416,0Z" transform="translate(-1011.629 -265.107)" fill="#fff"/></g><g transform="translate(21.131 180.636)"><path d="M611.839,490.831h20.106v76.6h35.291v17.644h-55.4Z" transform="translate(-611.839 -490.831)" fill="#fff"/><path d="M721.264,490.831v94.241H701.293V490.831Z" transform="translate(-635.742 -490.831)" fill="#fff"/><path d="M762.227,490.831l16.825,61.823,16.687-61.823h20.927l-28.724,94.241h-17.78l-28.725-94.241Z" transform="translate(-646.469 -490.831)" fill="#fff"/><path d="M927.06,585.072H902.986l-21.064-32.553h-4.515v32.553H857.3V490.831h38.571c21.338,0,31.324,15.455,31.324,30.911,0,13.4-7.387,26.536-23.527,29.956Zm-49.652-76.6v26.537h16.961c7.8,0,11.9-7.114,11.9-13.269,0-5.881-3.83-13.267-11.353-13.267Z" transform="translate(-677.429 -490.831)" fill="#fff"/><path d="M973.259,490.831H1032.9v17.643H993.23v21.474h34.742v17.372H993.23v20.107h40.9v17.644H973.259Z" transform="translate(-708.413 -490.831)" fill="#fff"/></g><g transform="translate(360.922 180.636)"><path d="M1075.533,518.149a27.172,27.172,0,0,0,27.133,27.149h39.965c7.375,0,10.687,6.342,10.687,12.633,0,6.2-3.312,12.452-10.688,12.452h-67.1v14.69h67.1a27.231,27.231,0,0,0,0-54.461h-39.963c-7.378,0-10.682-6.262-10.682-12.461,0-6.286,3.3-12.625,10.681-12.625h67.107V490.831h-67.106A27.256,27.256,0,0,0,1075.533,518.149Z" transform="translate(-1075.533 -490.831)" fill="#fff" fill-rule="evenodd"/><path d="M1275.312,535.029h-50.464V505.524h50.464c7.505,0,10.865,6.339,10.865,12.625V522.4c0,6.288-3.36,12.63-10.865,12.63Zm0-44.2h-66.921v94.241h16.457V549.718h50.464a27.351,27.351,0,0,0,27.322-27.319v-4.25A27.349,27.349,0,0,0,1275.312,490.831Z" transform="translate(-1111.034 -490.831)" fill="#fff" fill-rule="evenodd"/></g><g transform="translate(0 18.544)"><path d="M779.228,338.955l26.233-26.234c-61.911-57.712-160.023-57.188-222.458,0l26.233,26.234C656.981,295.408,731.483,295.408,779.228,338.955ZM751.42,366.762l17.838-17.839c-41.973-37.775-108.081-37.775-150.054,0l17.838,17.839C669.573,339.48,718.891,339.48,751.42,366.762Zm-25.184,25.184,14.69-14.691a72.892,72.892,0,0,0-93.39,0l14.69,14.691A55.173,55.173,0,0,1,726.237,391.946Zm-40.4,23.61a23.174,23.174,0,0,1,16.79,0l13.116-13.117a37.933,37.933,0,0,0-43.022,0Z" transform="translate(-583.003 -269.633)" fill="#fff"/></g></svg>