<svg xmlns="http://www.w3.org/2000/svg" width="169.324" height="169.324" viewBox="0 0 169.324 169.324"><path d="M5181.16-252a84.662,84.662,0,0,0-84.66,84.664,84.661,84.661,0,0,0,84.66,84.66,84.662,84.662,0,0,0,84.664-84.66A84.663,84.663,0,0,0,5181.16-252Zm39.735,54.683a15.139,15.139,0,0,1-13.065,14.561,14.8,14.8,0,0,1-12.571-3.911,1.029,1.029,0,0,0-1.375-.233q-10.607,5.355-21.244,10.657c-.405.2-.794.345-.7.963a15.322,15.322,0,0,1-1.062,7.873c6.864,5.875,13.73,11.751,20.443,17.5a50.591,50.591,0,0,1,5.247-1.8,15.268,15.268,0,0,1,18.361,15.863,15.313,15.313,0,0,1-13,14.287,15.383,15.383,0,0,1-17.222-11.92,15.423,15.423,0,0,1,.605-8.559.91.91,0,0,0-.3-1.208c-6.086-5.183-12.188-10.345-18.195-15.617a3.034,3.034,0,0,0-3.937-.6,15.229,15.229,0,0,1-21.269-11.761c-.064-.434-.144-.871-.217-1.3v-1.8c.073-.437.137-.874.217-1.308,1.065-5.972,4.37-10.22,10.083-12.236,5.67-2,10.9-.83,15.431,3.167a1.09,1.09,0,0,0,1.458.223c6.663-3.369,13.327-6.731,20.028-10.019,1.295-.635,2.3-1.212,1.687-2.864a.654.654,0,0,1-.006-.178,15.325,15.325,0,0,1,11.037-15.062c1.135-.329,2.325-.479,3.49-.715h1.617c1.165.236,2.351.4,3.49.725A15.109,15.109,0,0,1,5220.9-197.317Z" transform="translate(-5096.499 252)" fill="#fff"/></svg>