<svg xmlns="http://www.w3.org/2000/svg" width="169.324" height="169.321" viewBox="0 0 169.324 169.321"><path d="M5181.163,157.479a84.66,84.66,0,1,0,84.661,84.66A84.662,84.662,0,0,0,5181.163,157.479Zm43.818,88.36c-1.742,4.414-5.722,2.717-8.858,3.193-1.688,4.392-1.688,4.392,2.218,6.686.169.1.344.182.507.287a4.019,4.019,0,0,1,1.56,5.694c-.779,1.493-1.634,2.948-2.5,4.393-1.439,2.4-3.483,2.966-5.952,1.668-1.356-.711-2.683-1.486-4.189-2.325a19.58,19.58,0,0,1-1.62,1.825,17.038,17.038,0,0,1-1.844,1.27c1.065,1.863,1.885,3.183,2.593,4.561a3.982,3.982,0,0,1-1.455,5.579c-1.585,1-3.215,1.955-4.883,2.81a3.953,3.953,0,0,1-5.414-1.5c-.7-1.088-1.247-2.28-1.987-3.336a1.669,1.669,0,0,0-1.331-.657c-1.26.227-2.481.667-3.856,1.062,0,1.244-.089,2.475.019,3.69a4.745,4.745,0,0,1-3.123,5.215h-7.4c-4.412-1.739-2.715-5.722-3.193-8.855-4.383-1.687-4.383-1.687-6.687,2.217-.1.166-.185.341-.287.5a4.008,4.008,0,0,1-5.693,1.563c-1.493-.779-2.947-1.634-4.389-2.5-2.4-1.446-2.967-3.474-1.669-5.952.712-1.359,1.486-2.683,2.326-4.189a19.63,19.63,0,0,1-1.824-1.621,17.948,17.948,0,0,1-1.321-1.92c-1.132.766-1.809,1.139-2.48,1.522s-1.331.808-2.026,1.151a4.044,4.044,0,0,1-5.694-1.614c-.918-1.489-1.8-3.007-2.6-4.558a3.994,3.994,0,0,1,1.566-5.687c1.042-.651,2.168-1.174,3.17-1.882a1.687,1.687,0,0,0,.658-1.334c-.23-1.26-.667-2.481-1.062-3.853-1.244,0-2.476-.089-3.69.019a4.751,4.751,0,0,1-5.218-3.126v-7.4c1.742-4.415,5.722-2.715,8.858-3.193,1.694-4.4,1.694-4.4-2.214-6.686-.169-.1-.341-.185-.507-.287a4.008,4.008,0,0,1-1.563-5.694c.779-1.493,1.634-2.947,2.5-4.392,1.439-2.39,3.5-2.966,5.956-1.675,1.358.715,2.68,1.5,3.78,2.115,1.327-1.2,2.472-2.226,3.639-3.273-.836-1.464-1.652-2.784-2.363-4.159a3.981,3.981,0,0,1,1.454-5.579c1.585-1,3.212-1.961,4.884-2.813a3.955,3.955,0,0,1,5.417,1.5c.7,1.084,1.244,2.277,1.984,3.336a1.678,1.678,0,0,0,1.333.654c1.26-.227,2.481-.664,3.854-1.059,0-1.247.088-2.479-.02-3.69a4.747,4.747,0,0,1,3.124-5.219h7.4c4.412,1.738,2.714,5.722,3.193,8.858,4.4,1.694,4.4,1.694,6.686-2.217.095-.166.181-.341.286-.5a4.024,4.024,0,0,1,5.7-1.563c1.378.714,2.711,1.521,4.054,2.309,2.874,1.684,3.41,3.732,1.749,6.676-.657,1.167-1.34,2.322-2.093,3.624a20.137,20.137,0,0,1,1.844,1.655,17.4,17.4,0,0,1,1.269,1.841c1.867-1.062,3.187-1.875,4.565-2.587a3.981,3.981,0,0,1,5.579,1.449c1,1.589,1.952,3.215,2.807,4.887a3.948,3.948,0,0,1-1.5,5.413c-1.084.7-2.277,1.247-3.333,1.987a1.671,1.671,0,0,0-.661,1.33c.229,1.26.667,2.482,1.062,3.854,1.244,0,2.476.089,3.691-.019a4.751,4.751,0,0,1,5.218,3.126Z" transform="translate(-5096.5 -157.479)" fill="#fff"/></svg>