<svg xmlns="http://www.w3.org/2000/svg" width="169.321" height="169.324" viewBox="0 0 169.321 169.324"><g transform="translate(0 0)"><g transform="translate(77.373 83.871)"><path d="M4291.583,275.634c1.237,3.209,2.491,6.463,3.779,9.812h-14.449l3.76-9.729c-4.75-3.372-4.81-8.517-1.614-11.716a7.145,7.145,0,0,1,10.683.555C4296.043,267.264,4296.515,272.291,4291.583,275.634Z" transform="translate(-4280.854 -261.862)" fill="#fff"/></g><g transform="translate(69.875 41.435)"><path d="M4300.838,223.616c.009,3.167,0,6.335,0,9.6h-29.318c.265-4.539.01-9.052.9-13.323,1.455-6.992,8.527-11.592,15.41-10.75A14.64,14.64,0,0,1,4300.838,223.616Z" transform="translate(-4271.523 -209.048)" fill="#fff"/></g><path d="M4269.218,157.479a84.662,84.662,0,1,0,84.661,84.66A84.661,84.661,0,0,0,4269.218,157.479Zm30.293,120.995c0,3.289-2,5.3-5.263,5.3q-25.063.01-50.128,0a4.853,4.853,0,0,1-5.193-5.215q-.015-25.063,0-50.125c0-3.266,2.013-5.225,5.321-5.244,1.8-.009,3.61,0,5.578,0,0-3.314-.013-6.392,0-9.47a19.386,19.386,0,0,1,38.756-1c.083,3.423.013,6.849.013,10.465,1.958,0,3.809-.009,5.656,0,3.273.023,5.256,2.01,5.259,5.308Q4299.522,253.485,4299.512,278.474Z" transform="translate(-4184.558 -157.479)" fill="#fff"/></g></svg>