<svg xmlns="http://www.w3.org/2000/svg" width="169.323" height="169.323" viewBox="0 0 169.323 169.323"><path d="M4725.2,157.478a84.662,84.662,0,1,0,84.662,84.661A84.661,84.661,0,0,0,4725.2,157.478Zm3.344,73.731c.087-1.491.015-2.99.015-4.481a10.27,10.27,0,0,0,4.647,4.662,31.026,31.026,0,0,0,11.184,3.49,49.535,49.535,0,0,0,21.283-1.354,23.357,23.357,0,0,0,4.068-1.607c2.353-1.209,4.481-2.664,5.6-5.53,0,2.266.08,4.242-.022,6.2a5.348,5.348,0,0,1-1.911,3.5,15.357,15.357,0,0,1-5.892,3.467,47.588,47.588,0,0,1-31.034.029,16.367,16.367,0,0,1-5.523-3.084A6.193,6.193,0,0,1,4728.54,231.209ZM4725.3,242.1a43.368,43.368,0,0,1,16.433,2.939,14.492,14.492,0,0,1,5.285,3.461,4.929,4.929,0,0,1-.015,7.283,15.638,15.638,0,0,1-6.355,3.88,46.228,46.228,0,0,1-18.706,2.4,40.9,40.9,0,0,1-12.242-2.425,17.666,17.666,0,0,1-5.516-3.106c-3.149-2.758-3.193-5.972-.058-8.738,2.772-2.439,6.182-3.555,9.686-4.416a45.359,45.359,0,0,1,4.51-.832A47.039,47.039,0,0,1,4725.3,242.1Zm-48.7-37.006a15.492,15.492,0,0,1,6.429-3.952,45.725,45.725,0,0,1,18.5-2.41,40.2,40.2,0,0,1,13.125,2.7,14.557,14.557,0,0,1,5.783,3.809,4.855,4.855,0,0,1,0,6.884,14.2,14.2,0,0,1-5.515,3.663,43.389,43.389,0,0,1-16.1,2.925,44.971,44.971,0,0,1-16.388-2.758,14.7,14.7,0,0,1-5.9-3.815A4.894,4.894,0,0,1,4676.592,205.1Zm-1.477,9.845c1.412,3.265,4.242,4.815,7.282,6.016,6.233,2.469,12.756,3.026,19.386,2.65a40.744,40.744,0,0,0,12.039-2.36,21.576,21.576,0,0,0,3.4-1.571,10.385,10.385,0,0,0,4.633-4.662c0,1.809.051,3.619-.015,5.422-.08,2.186-1.412,3.656-3.048,4.872a23.5,23.5,0,0,1-9.469,3.916,48.457,48.457,0,0,1-26.248-1.31,17.405,17.405,0,0,1-5.546-3.055,6.241,6.241,0,0,1-2.5-5.357C4675.123,217.99,4675.05,216.469,4675.116,214.942Zm-.08,16.216c.087-1.484.015-2.983.015-4.481,1.165,2.62,3.309,4.075,5.684,5.248a34.674,34.674,0,0,0,12.14,3.207,48.977,48.977,0,0,0,19.219-1.585,21.47,21.47,0,0,0,6.573-3.1,8.7,8.7,0,0,0,3.121-3.757c-.037,2.251.427,4.532-.188,6.74-.587,2.107-2.273,3.366-4.062,4.438a28.94,28.94,0,0,1-10.315,3.5,49.065,49.065,0,0,1-23.013-1.346,18.821,18.821,0,0,1-6.711-3.482A6.232,6.232,0,0,1,4675.036,231.158Zm23.433,33.655c.008.55-.195.717-.731.71-5.921-.16-11.713-.934-17.12-3.555a15.048,15.048,0,0,1-2.982-1.9,6.32,6.32,0,0,1-2.6-5.516c.095-1.477.015-2.968.015-4.452,1.216,2.715,3.482,4.213,5.994,5.4a36.591,36.591,0,0,0,12.589,3.113c1.346.124,2.707.182,4.061.2.587.007.782.188.774.782Q4698.427,262.2,4698.468,264.813Zm1.4-17.251a8.5,8.5,0,0,0-1.4,5.35c.043.659-.144.926-.861.9a43.36,43.36,0,0,1-15.593-2.917,15.031,15.031,0,0,1-5.234-3.344,5.694,5.694,0,0,1-1.737-4.315c.058-1.527.007-3.062.007-4.915,2.338,4.408,6.327,5.863,10.411,7.1a43.922,43.922,0,0,0,12.154,1.694c.76.014,1.52,0,2.353,0A1.587,1.587,0,0,1,4699.866,247.562Zm48.706,28.413a5.266,5.266,0,0,1-1.782,3.446,15.148,15.148,0,0,1-6.044,3.605,47.529,47.529,0,0,1-31.026.022,16.39,16.39,0,0,1-5.451-3.019,6.252,6.252,0,0,1-2.484-5.364c.1-1.491.022-2.99.022-4.771,1.614,3.721,4.691,5.27,7.963,6.494a45.707,45.707,0,0,0,18.909,2.4,40.241,40.241,0,0,0,11.93-2.374,21.848,21.848,0,0,0,2.2-.941c2.425-1.209,4.633-2.672,5.784-5.632C4748.593,272.095,4748.658,274.035,4748.571,275.975Zm-.029-11.546c-.146,1.81-1.362,3.084-2.73,4.163a19.023,19.023,0,0,1-5.711,2.975,46.855,46.855,0,0,1-18.112,2.2,39.935,39.935,0,0,1-13.2-2.795,15.169,15.169,0,0,1-5.242-3.352,5.719,5.719,0,0,1-1.752-4.314c.051-1.622.008-3.237.008-4.858,1.15,2.585,3.272,4.054,5.639,5.227a34.553,34.553,0,0,0,11.931,3.185,48.655,48.655,0,0,0,20.125-1.766,22.1,22.1,0,0,0,4.393-1.9,10.171,10.171,0,0,0,4.691-4.757C4748.578,260.44,4748.7,262.445,4748.542,264.429Zm1.737-17.309a63.008,63.008,0,0,0,6.391-.2,37.64,37.64,0,0,0,12.886-3.214,10.965,10.965,0,0,0,5.777-5.43c0,2.071.08,4.047-.022,6.008a5.242,5.242,0,0,1-1.83,3.424,17.023,17.023,0,0,1-6.451,3.735,44.666,44.666,0,0,1-14.239,2.36c-.413.007-.862.087-.832-.587a10.237,10.237,0,0,0-.26-3.105A11.22,11.22,0,0,0,4750.279,247.12Zm25.032,8.868a5.186,5.186,0,0,1-1.751,3.351,16.219,16.219,0,0,1-6.038,3.627,44.912,44.912,0,0,1-14.725,2.563c-.731.014-.861-.276-.847-.913.029-1.571.058-3.134-.014-4.7-.036-.861.21-1.1,1.092-1.114a42.541,42.541,0,0,0,14.415-2.491,17.447,17.447,0,0,0,5.682-3.228,9.022,9.022,0,0,0,2.215-3C4775.34,252.057,4775.414,254.026,4775.312,255.988Zm-2.381-31.171c-2.78,2.36-6.153,3.482-9.621,4.321a50.5,50.5,0,0,1-12.083,1.274,44.07,44.07,0,0,1-14.681-2.5,17.534,17.534,0,0,1-5.618-3.142c-3.178-2.794-3.192-6.03.022-8.8a20.881,20.881,0,0,1,9.208-4.235,48.331,48.331,0,0,1,27.256,1.122,16.582,16.582,0,0,1,5.53,3.084C4776.174,218.75,4776.188,222.051,4772.931,224.817Z" transform="translate(-4640.534 -157.478)" fill="#fff"/></svg>