<svg xmlns="http://www.w3.org/2000/svg" width="169.324" height="169.321" viewBox="0 0 169.324 169.321"><g transform="translate(0 0)"><path d="M4269.22-252a84.661,84.661,0,0,0-84.663,84.66,84.661,84.661,0,0,0,84.663,84.66,84.662,84.662,0,0,0,84.661-84.66A84.662,84.662,0,0,0,4269.22-252Zm22.213,52.415v-.957c0-.376,0-.746-.006-1.11-.01-1.027-.02-2,.048-2.988a2.029,2.029,0,0,1,1.793-1.595c4.386-.071,8.807-.092,13.133-.074a1.986,1.986,0,0,1,1.767,1.681c.041,3.816.038,7.544.038,11.493l0,3.464h-6.7v-5.183l-13.226,13.273-4.676-5,13.095-13Zm-76.688,32.15,11.382-11.741,4.756,4.921-3.592,3.416h17.978v6.749H4227.4l3.56,3.251-5.059,4.931Zm32.316,32.189v6.647h-2.236c-.912,0-1.809,0-2.7,0l-1.987.013c-2.479.013-5.046.023-7.566.067h-.1a2.1,2.1,0,0,1-1.562-.52,2.168,2.168,0,0,1-.521-1.576c.069-4.386.08-8.852.082-12.692a2.051,2.051,0,0,1,.537-1.554,1.889,1.889,0,0,1,1.46-.463c.792.032,1.6.026,2.46.019.393,0,.8-.006,1.218-.006h.957v5.254l13.226-13.279,4.635,4.82-13.4,13.27Zm2.984-46.616-12.873-13.046v5.2h-6.718l0-1.614c0-.475,0-.96,0-1.441l-.013-2.316q-.025-4.508-.061-9.021a2.294,2.294,0,0,1,.517-1.758,1.972,1.972,0,0,1,1.5-.5c3.011.051,6.075.076,9.039.1q2.1.014,4.2.035a1.72,1.72,0,0,1,.6.13,1.545,1.545,0,0,0,.146.051l.677.207v6.195h-5.172l13.337,13.254Zm19.188,69L4257.641-124.2l4.708-4.892,3.592,3.955v-19.6h6.687v19.187l3.358-3.438,4.807,4.892Zm6.96-93.034-3.467-3.735v18.976h-.957c-.4,0-.778,0-1.152.01s-.724.006-1.08.006c-.692,0-1.369-.016-2.055-.077-.961-.086-1.5-1.451-1.5-2.131-.035-3.917-.032-7.894-.029-11.745v-4.785l-3.44,3.576-4.607-4.97,11.563-11.04,11.368,11.2ZM4307.733-129a1.777,1.777,0,0,1-1.312.475h-.013c-3.42-.013-6.777-.013-10.335-.01h-4.567v-6.7h5.139l-13.295-13.139,4.915-4.73,13.119,13.254v-5.311h6.8v7.633c.006,2.322.01,4.644.025,6.966A2.065,2.065,0,0,1,4307.733-129Zm4.75-26.766-4.709-4.594,3.9-3.639h-18.129v-6.747h17.6l-3.693-3.387,5.184-4.7,11.052,11.525Z" transform="translate(-4184.557 252)" fill="#fff"/></g></svg>