<svg xmlns="http://www.w3.org/2000/svg" width="169.321" height="169.324" viewBox="0 0 169.321 169.324"><path d="M4725.19-252a84.662,84.662,0,0,0-84.661,84.664,84.662,84.662,0,0,0,84.661,84.66,84.659,84.659,0,0,0,84.661-84.66A84.66,84.66,0,0,0,4725.19-252Zm-.019,123.461a9.374,9.374,0,0,1-9.266-9.337,9.37,9.37,0,0,1,9.364-9.235,9.372,9.372,0,0,1,9.211,9.283A9.374,9.374,0,0,1,4725.171-128.539Zm19.709-21.64a5.424,5.424,0,0,1-7.913-.019,16.8,16.8,0,0,0-23.512-.035,5.426,5.426,0,0,1-7.917.089,5.416,5.416,0,0,1,.319-7.9,27.593,27.593,0,0,1,19.326-7.9,27.577,27.577,0,0,1,19.387,7.939A5.4,5.4,0,0,1,4744.88-150.179Zm17.046-15.834a5.169,5.169,0,0,1-4.038,3.805,5.369,5.369,0,0,1-5.225-1.617,38.5,38.5,0,0,0-10.058-7.212,38.919,38.919,0,0,0-44.456,6.826c-1.611,1.55-3.35,2.523-5.617,2.016a5.183,5.183,0,0,1-4.062-3.784,5.3,5.3,0,0,1,1.513-5.541,50.067,50.067,0,0,1,10.747-8.127c7.61-4.265,15.783-6.354,26.21-6.37,11.879.166,23.585,4.925,33.359,14.392A5.376,5.376,0,0,1,4761.927-166.012Zm12-9.848a5.428,5.428,0,0,1-5.535-1.566,57.864,57.864,0,0,0-25.674-15.171c-23.008-6.242-43.3-1.164-60.708,15.167-3.247,3.046-8.182,1.946-9.3-2.227a5.378,5.378,0,0,1,1.6-5.522,71.861,71.861,0,0,1,29.849-17.834,71.035,71.035,0,0,1,21.1-3.122c19.729.3,36.744,7.2,50.881,21.036A5.423,5.423,0,0,1,4773.924-175.86Z" transform="translate(-4640.53 252)" fill="#fff"/></svg>