<svg xmlns="http://www.w3.org/2000/svg" width="169.228" height="169.22" viewBox="0 0 169.228 169.22">
  <path id="Caminho_2034" data-name="Caminho 2034" d="M-993.449-1410.393c-.562-2.738-2.746-4.6-4.874-4.16s-3.406,3.011-2.843,5.742,2.745,4.6,4.874,4.16S-992.887-1407.663-993.449-1410.393Zm0,0c-.562-2.738-2.746-4.6-4.874-4.16s-3.406,3.011-2.843,5.742,2.745,4.6,4.874,4.16S-992.887-1407.663-993.449-1410.393ZM-1035.832-1512a84.612,84.612,0,0,0-84.614,84.606,84.613,84.613,0,0,0,84.614,84.614,84.613,84.613,0,0,0,84.614-84.614A84.612,84.612,0,0,0-1035.832-1512Zm-25.657,122.621h-16.172v-6.464h16.172Zm0-9.7h-16.172v-55h16.172Zm0-58.235h-16.172v-8.086h16.172Zm24.259,67.935h-21.022v-7.6a27.418,27.418,0,0,1,11.323-2.1c6.183,0,8.849,1.446,9.7,2.056Zm0-11.306a24.145,24.145,0,0,0-9.7-1.63,32.343,32.343,0,0,0-11.323,1.831v-39.525a32.3,32.3,0,0,0,11.323,1.839,24.142,24.142,0,0,0,9.7-1.63Zm0-42.793c-.882.642-3.565,2.072-9.7,2.072a27.246,27.246,0,0,1-11.323-2.1v-5.717h21.022Zm21.032,54.1h-16.173v-6.464h16.173Zm0-9.7h-16.173v-4.85h16.173Zm0-8.086h-16.173v-38.826h16.173Zm0-42.062h-16.173v-4.85h16.173Zm0-8.087h-16.173v-8.086h16.173Zm2.176-6.175,11.1-2.273,1.622,7.918-11.09,2.281Zm2.281,11.1,11.09-2.272L-989.6-1400.8l-11.09,2.28Zm13,63.374-1.3-6.336,11.1-2.281,1.293,6.344Zm5.292-21.376c-.562-2.738-2.746-4.6-4.874-4.16s-3.406,3.011-2.843,5.742,2.745,4.6,4.874,4.16S-992.887-1407.663-993.449-1410.393Z" transform="translate(1120.446 1511.999)" fill="#0D293C"/>
</svg>
