<svg id="Agrupar_1169" data-name="Agrupar 1169" xmlns="http://www.w3.org/2000/svg" width="169.22" height="169.22" viewBox="0 0 169.22 169.22">
  <g id="Agrupar_1167" data-name="Agrupar 1167" transform="translate(62.892 53.85)">
    <path id="Caminho_1997" data-name="Caminho 1997" d="M-1003.206-342.368l4.521,3.622-4.521,3.622.9,4.521a25.217,25.217,0,0,0-14.478-4.521,25.248,25.248,0,0,0,4.521,14.478l-4.521-.907-3.622,4.521-3.621-4.521-4.521.907a25.247,25.247,0,0,0,4.521-14.478,25.206,25.206,0,0,0-14.47,4.521l.9-4.521-4.521-3.622,4.521-3.622-.9-4.521a25.205,25.205,0,0,0,14.47,4.521,25.216,25.216,0,0,0-4.521-14.478l4.521.907,3.621-4.521,3.622,4.521,4.521-.907a25.217,25.217,0,0,0-4.521,14.478,25.217,25.217,0,0,0,14.478-4.521Z" transform="translate(1042.12 360.46)" fill="#0D293C"/>
  </g>
  <g id="Agrupar_1168" data-name="Agrupar 1168" transform="translate(0 0)">
    <path id="Caminho_1998" data-name="Caminho 1998" d="M-1035.834-427.52a84.6,84.6,0,0,0-84.606,84.606,84.606,84.606,0,0,0,84.606,84.614,84.613,84.613,0,0,0,84.614-84.614A84.611,84.611,0,0,0-1035.834-427.52Zm36.2,44.319a2.288,2.288,0,0,1-2.289,2.289h-3.14v88.677a1.81,1.81,0,0,1-1.807,1.807,1.806,1.806,0,0,1-1.815-1.807V-307.4l-3.622-1.807v13.354a1.806,1.806,0,0,1-1.807,1.815,1.806,1.806,0,0,1-1.807-1.815v-15.169l-3.63-1.807-10.857-5.428v27.833h-10.857v-27.833l-7.235,3.622v15.161a1.813,1.813,0,0,1-1.815,1.815,1.811,1.811,0,0,1-1.807-1.815v-13.354l-3.621,1.807v15.169a1.811,1.811,0,0,1-1.807,1.815,1.806,1.806,0,0,1-1.807-1.815v-13.354l-3.622,1.807v15.169a1.811,1.811,0,0,1-1.815,1.807,1.81,1.81,0,0,1-1.807-1.807v-88.677h-3.14a2.288,2.288,0,0,1-2.289-2.289v-2.658a2.294,2.294,0,0,1,2.289-2.3h28.475V-393.1a2.293,2.293,0,0,1,2.289-2.289h6.28a2.288,2.288,0,0,1,2.289,2.289v4.947h28.483a2.3,2.3,0,0,1,2.289,2.3Z" transform="translate(1120.44 427.52)" fill="#0D293C"/>
  </g>
</svg>
