<svg xmlns="http://www.w3.org/2000/svg" width="169.22" height="169.22" viewBox="0 0 169.22 169.22">
  <g id="Agrupar_1174" data-name="Agrupar 1174" transform="translate(0)">
    <rect id="Retângulo_96" data-name="Retângulo 96" width="1.823" height="34.072" transform="translate(38.457 68.216)" fill="#535353"/>
    <rect id="Retângulo_97" data-name="Retângulo 97" width="1.823" height="34.08" transform="translate(43.267 68.192)" fill="#535353"/>
    <rect id="Retângulo_98" data-name="Retângulo 98" width="1.823" height="34.072" transform="translate(48.518 68.216)" fill="#535353"/>
    <rect id="Retângulo_99" data-name="Retângulo 99" width="1.823" height="34.08" transform="translate(53.923 68.192)" fill="#535353"/>
    <rect id="Retângulo_100" data-name="Retângulo 100" width="1.823" height="34.072" transform="translate(59.311 68.216)" fill="#535353"/>
    <rect id="Retângulo_101" data-name="Retângulo 101" width="19.048" height="24.05" transform="translate(66.795 80.398)" fill="#535353"/>
    <rect id="Retângulo_102" data-name="Retângulo 102" width="1.823" height="34.072" transform="translate(91.03 68.208)" fill="#535353"/>
    <rect id="Retângulo_103" data-name="Retângulo 103" width="1.823" height="34.072" transform="translate(95.848 68.184)" fill="#535353"/>
    <rect id="Retângulo_104" data-name="Retângulo 104" width="1.823" height="34.072" transform="translate(101.1 68.208)" fill="#535353"/>
    <rect id="Retângulo_105" data-name="Retângulo 105" width="1.823" height="34.072" transform="translate(106.496 68.184)" fill="#535353"/>
    <rect id="Retângulo_106" data-name="Retângulo 106" width="1.823" height="34.072" transform="translate(111.884 68.208)" fill="#535353"/>
    <rect id="Retângulo_107" data-name="Retângulo 107" width="1.823" height="34.072" transform="translate(117.176 68.208)" fill="#535353"/>
    <path id="Caminho_2031" data-name="Caminho 2031" d="M-123.886-427.52A84.606,84.606,0,0,0-208.5-342.914,84.608,84.608,0,0,0-123.886-258.3,84.606,84.606,0,0,0-39.28-342.914,84.6,84.6,0,0,0-123.886-427.52Zm39.324,104.81v-.048h-90.026V-363.11h90.026l.217.321,27.214,40.079Z" transform="translate(208.5 427.52)" fill="#0D293C"/>
  </g>
</svg>
