<svg xmlns="http://www.w3.org/2000/svg" width="169.228" height="169.228" viewBox="0 0 169.228 169.228">
  <path id="Caminho_2036" data-name="Caminho 2036" d="M-123.886-1512a84.608,84.608,0,0,0-84.614,84.614,84.613,84.613,0,0,0,84.614,84.614,84.618,84.618,0,0,0,84.614-84.614A84.613,84.613,0,0,0-123.886-1512Zm38.312,120.244h-1.478l1.413,1.863a2.382,2.382,0,0,1-.458,3.34,2.373,2.373,0,0,1-1.437.49,2.406,2.406,0,0,1-1.911-.948l-3.6-4.746h-42.383a3.663,3.663,0,0,1-.426-.056l-3.646,4.8a2.379,2.379,0,0,1-1.9.948,2.373,2.373,0,0,1-1.437-.49,2.382,2.382,0,0,1-.458-3.34l3.477-4.593-10.656-15.217a4.776,4.776,0,0,1,1.172-6.649,4.776,4.776,0,0,1,6.649,1.172l9.708,13.876h1.445v-28.563l-3.092-3.083a6.738,6.738,0,0,1-2.843.642,2.562,2.562,0,0,0-2.562,2.554,6.754,6.754,0,0,1-1.983,4.81h-.008a6.711,6.711,0,0,1-4.633,1.983l-.169.008a2.555,2.555,0,0,0-2.554,2.553,6.971,6.971,0,0,1-6.8,6.8,2.037,2.037,0,0,1-.811-.169,2.133,2.133,0,0,1-.675-.442c-.008-.008-.008-.008-.016-.008a31.952,31.952,0,0,1-1.6-43.4l-1.429-1.429a2.384,2.384,0,0,1,0-3.373,2.385,2.385,0,0,1,3.373,0l1.429,1.429a31.969,31.969,0,0,1,43.4,1.6,2.11,2.11,0,0,1,.49,2.152,7.038,7.038,0,0,1-6.737,6.207,2.586,2.586,0,0,0-1.807.747v.008a2.539,2.539,0,0,0-.747,1.807,6.806,6.806,0,0,1-6.794,6.794,2.563,2.563,0,0,0-2.562,2.562,6.74,6.74,0,0,1-.6,2.762l3.806,3.806a2.362,2.362,0,0,1,.7,1.686l.008,29.551h41.147a4.77,4.77,0,0,1,4.77,4.77A4.777,4.777,0,0,1-85.574-1391.756Z" transform="translate(208.5 1512)" fill="#0D293C"/>
</svg>
