<svg xmlns="http://www.w3.org/2000/svg" width="169.225" height="169.225" viewBox="0 0 169.225 169.225">
  <path id="Caminho_1924" data-name="Caminho 1924" d="M-579.856-1152.523a84.613,84.613,0,0,0-84.612,84.612A84.613,84.613,0,0,0-579.856-983.3a84.613,84.613,0,0,0,84.612-84.612A84.613,84.613,0,0,0-579.856-1152.523Zm31,92.115a13.288,13.288,0,0,1-13.2,11.9,13.174,13.174,0,0,1-7.485-2.282l-5.534,5.726a58.781,58.781,0,0,0-1.025,9.3c.1,3.272,2.457,13.078,2.457,13.078H-589.6c1.033-4.4,2.5-9.834,2.763-14.718.144-2.559-.509-12.667-.509-12.667-1.752.449-5.375-1.819-7.911-3.638a13.151,13.151,0,0,1-6.08,1.489,13.277,13.277,0,0,1-13.278-13.279c0-.242.018-.477.035-.716a13.25,13.25,0,0,1-4.947-10.329,13.262,13.262,0,0,1,6.194-11.214c-.032-.354-.06-.7-.06-1.067a13.278,13.278,0,0,1,13.279-13.271,14.135,14.135,0,0,1,1.646.106,13.261,13.261,0,0,1,13.085-11.158,13.26,13.26,0,0,1,11.6,6.814,13.158,13.158,0,0,1,6.822-1.906,13.275,13.275,0,0,1,12.44,8.672,13.275,13.275,0,0,1,11.891,13.2,13.253,13.253,0,0,1-.882,4.726,13.227,13.227,0,0,1,3.336,8.781A13.284,13.284,0,0,1-548.851-1060.408Z" transform="translate(664.468 1152.523)" fill="#0D293C"/>
</svg>
