<svg xmlns="http://www.w3.org/2000/svg" width="169.22" height="169.22" viewBox="0 0 169.22 169.22">
  <g id="Agrupar_1147" data-name="Agrupar 1147" transform="translate(0 0)">
    <g id="Agrupar_1144" data-name="Agrupar 1144" transform="translate(64.884 68.827)">
      <path id="Caminho_1917" data-name="Caminho 1917" d="M-107.978-1066.81a19.728,19.728,0,0,0-19.722,19.73,19.728,19.728,0,0,0,19.722,19.73,19.73,19.73,0,0,0,19.73-19.73A19.73,19.73,0,0,0-107.978-1066.81Zm0,31.567a11.837,11.837,0,0,1-11.836-11.836,11.837,11.837,0,0,1,11.836-11.836,11.844,11.844,0,0,1,11.845,11.836A11.844,11.844,0,0,1-107.978-1035.243Z" transform="translate(127.7 1066.81)" fill="#535353"/>
    </g>
    <g id="Agrupar_1145" data-name="Agrupar 1145" transform="translate(110.648 72.769)">
      <path id="Caminho_1918" data-name="Caminho 1918" d="M-65.185-1059.138a2.762,2.762,0,0,1-2.762,2.762,2.767,2.767,0,0,1-2.762-2.762,2.767,2.767,0,0,1,2.762-2.762A2.762,2.762,0,0,1-65.185-1059.138Z" transform="translate(70.71 1061.9)" fill="#535353"/>
    </g>
    <g id="Agrupar_1146" data-name="Agrupar 1146" transform="translate(0)">
      <path id="Caminho_1919" data-name="Caminho 1919" d="M-123.886-1152.52a84.606,84.606,0,0,0-84.614,84.606A84.608,84.608,0,0,0-123.886-983.3a84.606,84.606,0,0,0,84.606-84.614A84.6,84.6,0,0,0-123.886-1152.52Zm39.452,108.287a7.912,7.912,0,0,1-7.894,7.886h-63.125a7.912,7.912,0,0,1-7.894-7.886v-35.518a7.911,7.911,0,0,1,7.894-7.885h9.468a3.514,3.514,0,0,0,3.116-2.249l2.449-7.348a3.506,3.506,0,0,1,3.116-2.24h26.829a3.506,3.506,0,0,1,3.116,2.24l2.449,7.348a3.514,3.514,0,0,0,3.116,2.249h9.468a7.911,7.911,0,0,1,7.894,7.885Z" transform="translate(208.5 1152.52)" fill="#0D293C"/>
    </g>
  </g>
</svg>
