<svg xmlns="http://www.w3.org/2000/svg" width="169.228" height="169.22" viewBox="0 0 169.228 169.22">
  <g id="Agrupar_1150" data-name="Agrupar 1150" transform="translate(0 0)">
    <g id="Agrupar_1148" data-name="Agrupar 1148" transform="translate(55.047 73.267)">
      <rect id="Retângulo_95" data-name="Retângulo 95" width="59.134" height="13.643" fill="#535353"/>
    </g>
    <g id="Agrupar_1149" data-name="Agrupar 1149">
      <path id="Caminho_1920" data-name="Caminho 1920" d="M-579.856-791.52a84.613,84.613,0,0,0-84.614,84.614A84.611,84.611,0,0,0-579.856-622.3a84.611,84.611,0,0,0,84.614-84.606A84.613,84.613,0,0,0-579.856-791.52Zm48.366,102.762h-6.737v15.7H-542.4v-15.7h-3.726v9.082h-4.168v-9.082h-59.134v9.082h-4.168v-9.082h-3.726v15.7h-4.168v-15.7h-6.737v-3.429l8.986-12.423h5.645v-13.643h-10.022v-18.429h10.022v-4.079h4.168v4.079h59.134v-4.079h4.168v4.079H-536.1v18.429h-10.022v13.643h5.645l8.986,12.423Z" transform="translate(664.47 791.52)" fill="#0D293C"/>
    </g>
  </g>
</svg>
