<svg xmlns="http://www.w3.org/2000/svg" width="169.22" height="169.22" viewBox="0 0 169.22 169.22">
  <g id="Agrupar_1163" data-name="Agrupar 1163" transform="translate(0 0)">
    <g id="Agrupar_1162" data-name="Agrupar 1162" transform="translate(0)">
      <path id="Caminho_1961" data-name="Caminho 1961" d="M-106.886-731.253h-34.987l-.145,5.252h35.277Zm0,0h-34.987l-.145,5.252h35.277Zm0,0h-34.987l-.145,5.252h35.277Zm-49.482,42.03v4.85h5.26v-4.85Zm0,8.753v4.858h5.26v-4.858Zm29.848-17.763v4.85h5.26v-4.85Zm0,8.753v4.858h5.26v-4.858Zm0,10.889v9.564h5.26v-9.564Zm19.634-52.662h-34.987l-.145,5.252h35.277Zm9.717,42.03v4.85h5.252v-4.85Zm0,8.753v4.858h5.252v-4.858Zm0,4.858h5.252v-4.858H-97.17Zm0-13.611v4.85h5.252v-4.85Zm-29.35,20.2h5.26v-9.564h-5.26Zm0-15.595h5.26v-4.858h-5.26Zm0-8.761h5.26v-4.85h-5.26Zm-29.848,17.771h5.26v-4.858h-5.26Zm0-8.761h5.26v-4.85h-5.26Zm49.482-46.88h-34.987l-.145,5.252h35.277Zm-17-60.267A84.606,84.606,0,0,0-208.5-706.914,84.608,84.608,0,0,0-123.886-622.3,84.606,84.606,0,0,0-39.28-706.914,84.6,84.6,0,0,0-123.886-791.52Zm-21.3,60.267h3.316a17.692,17.692,0,0,1,15.354-15.257v-7.653h5.26v7.805a17.671,17.671,0,0,1,14.374,15.1h4.3V-726h-4.152v9.62L-123.886-726l-18.132,10.062V-726h-3.172Zm.281,22.926,21.015-11.652,22.011,12.35.956.651h-45.925Zm-23.826,5.067h21.545V-698h-21.545Zm89.689,38.786h-89.689v-5.252h4.208v-23.023h17.337v23.721h5.332v-32.691h5.517v32.691h5.252v-32.691h14.061v32.691h5.252v-32.691h5.854v32.691h5.332v-23.721h17.337v23.023h4.208Zm0-33.526H-100.59v-5.26h21.545ZM-97.17-675.612h5.252v-4.858H-97.17Zm0-8.761h5.252v-4.85H-97.17ZM-106.742-726l-.145-5.252h-34.987l-.145,5.252Zm-19.778,56.974h5.26v-9.564h-5.26Zm0-15.595h5.26v-4.858h-5.26Zm0-8.761h5.26v-4.85h-5.26Zm-29.848,17.771h5.26v-4.858h-5.26Zm0-8.761h5.26v-4.85h-5.26Zm49.482-46.88h-34.987l-.145,5.252h35.277Zm-49.482,42.03v4.85h5.26v-4.85Zm0,8.753v4.858h5.26v-4.858Zm29.848-17.763v4.85h5.26v-4.85Zm0,8.753v4.858h5.26v-4.858Zm0,10.889v9.564h5.26v-9.564Zm29.35-10.632v4.85h5.252v-4.85Zm0,8.753v4.858h5.252v-4.858Zm0,0v4.858h5.252v-4.858Zm0-8.753v4.85h5.252v-4.85Zm-9.717-42.03h-34.987l-.145,5.252h35.277Zm-19.634,52.662v9.564h5.26v-9.564Zm0-10.889v4.858h5.26v-4.858Zm0-8.753v4.85h5.26v-4.85Zm-29.848,17.763v4.858h5.26v-4.858Zm0-8.753v4.85h5.26v-4.85Zm49.482-42.03h-34.987l-.145,5.252h35.277Zm0,0h-34.987l-.145,5.252h35.277Zm0,0h-34.987l-.145,5.252h35.277Z" transform="translate(208.5 791.52)" fill="#0D293C"/>
    </g>
  </g>
</svg>
