<svg xmlns="http://www.w3.org/2000/svg" width="169.22" height="169.22" viewBox="0 0 169.22 169.22">
  <path id="Caminho_1960" data-name="Caminho 1960" d="M-1035.834-791.52a84.6,84.6,0,0,0-84.606,84.606,84.606,84.606,0,0,0,84.606,84.614,84.613,84.613,0,0,0,84.614-84.614A84.611,84.611,0,0,0-1035.834-791.52Zm17.94,55.738h20.846V-716.3h-20.846Zm-66.683,40.046a5.518,5.518,0,0,1-3.389,1.261c-2.425.056-4.85.024-7.267.024h-.538v-2.738c.193-.008.385-.032.57-.032,1.839,0,3.686-.04,5.525.016a2.273,2.273,0,0,0,2.3-1.823,2.255,2.255,0,0,0-1.606-2.618c-1.028-.337-2.064-.659-3.116-.915a5.668,5.668,0,0,1-4.216-6.023,5.566,5.566,0,0,1,4.666-5.059,4.752,4.752,0,0,1,.891-.056h6.689c.121,0,.241.016.4.032v2.369h-1.51c-1.092,0-2.176-.008-3.268,0a1.88,1.88,0,0,0-1.919,1.469,1.777,1.777,0,0,0,1.341,2.08c.931.313,1.847.659,2.795.923a5.221,5.221,0,0,1,3.9,4.3A6.422,6.422,0,0,1-1084.577-695.736Zm19.61-17.209c0,4-.016,8.006,0,12.005a6.54,6.54,0,0,1-4.208,6.392,8.132,8.132,0,0,1-9.966-2.57,5.557,5.557,0,0,1-1.06-3.188c-.016-4.272-.008-8.536-.024-12.8-.008-.409.152-.5.522-.49,1.526.016,3.06.024,4.585-.008.49-.008.618.153.618.626-.016,4.16,0,8.319-.016,12.487a3.151,3.151,0,0,0,1.959,3.18,3.655,3.655,0,0,0,4.449-1.221,3.433,3.433,0,0,0,.506-2.056q0-6.167.008-12.326c0-.682,0-.682.7-.682h1.927Zm14.093,16.6a6.122,6.122,0,0,1-4.481,1.887c-2.457.024-4.915.008-7.436.008v-2.73c.209-.016.41-.04.618-.04,1.839,0,3.686-.04,5.525.016a2.269,2.269,0,0,0,2.256-1.943,2.252,2.252,0,0,0-1.63-2.554c-1.1-.321-2.216-.65-3.324-.964a5.662,5.662,0,0,1-4-6.063,5.7,5.7,0,0,1,4.7-4.922,6.54,6.54,0,0,1,1.052-.048c2.144-.008,4.28,0,6.424,0,.152,0,.305.016.5.032v2.337c-.169.008-.353.024-.538.024-1.438.008-2.883-.008-4.32.008a1.772,1.772,0,0,0-1.694,1.044,1.629,1.629,0,0,0,.177,1.831,2.323,2.323,0,0,0,.924.634c.98.377,1.975.723,2.987,1.012a5.254,5.254,0,0,1,3.895,4.312A6.373,6.373,0,0,1-1050.875-696.346Zm19.819,2.835c-2.249-.233-4.481-.538-6.721-.811a5.232,5.232,0,0,0-.988-.1c-.546.032-.578-.257-.578-.683.008-3.4,0-6.81,0-10.214v-7.685c1.911.257,3.742.522,5.581.739,1.935.225,3.863.434,5.8.594,2.064.177,4.128.281,6.191.434a.836.836,0,0,1,.49.241q9.443,9.13,18.871,18.277a3.219,3.219,0,0,1,.377.707h-.883c-3.268-.04-6.528-.016-9.789-.137-3.276-.12-6.553-.361-9.821-.6C-1025.371-692.966-1028.213-693.223-1031.056-693.512Zm13.145,21.9a171.977,171.977,0,0,1-1.694-19.12,146.614,146.614,0,0,0,19.682.2c.562,6.36,1.116,12.623,1.678,18.919Zm20.87-5.862c-.04,0-.072.008-.112.008-.257-4.055-.522-8.1-.771-12.158a2.251,2.251,0,0,0-.787-1.9h1.67Zm21.1-16.341q-11.744,0-23.488.008a1.5,1.5,0,0,1-1.156-.466q-9.443-9.094-18.895-18.188a2.206,2.206,0,0,0-1.5-.667c-3.758-.241-7.516-.546-11.258-.948h56.91v20.26Z" transform="translate(1120.44 791.52)" fill="#0D293C"/>
</svg>
