<svg xmlns="http://www.w3.org/2000/svg" width="169.22" height="169.22" viewBox="0 0 169.22 169.22">
  <path id="Caminho_1916" data-name="Caminho 1916" d="M-1035.834-1152.52a84.6,84.6,0,0,0-84.606,84.606,84.606,84.606,0,0,0,84.606,84.614,84.613,84.613,0,0,0,84.614-84.614A84.611,84.611,0,0,0-1035.834-1152.52Zm-50.815,57.408a60.6,60.6,0,0,1,1.839-14.9,2.582,2.582,0,0,1,1.285-1.638,2.594,2.594,0,0,1,1.221-.305,2.634,2.634,0,0,1,.851.145c5.983,2.1,15.225,3.461,25.616,3.461s19.626-1.357,25.616-3.461a2.633,2.633,0,0,1,.851-.145,2.594,2.594,0,0,1,1.221.305,2.542,2.542,0,0,1,1.285,1.638,60.6,60.6,0,0,1,1.831,14.9c0,24.259-13.788,43.933-30.8,43.933S-1086.649-1070.853-1086.649-1095.112Zm70.826,71.244c-12.752,0-23.7-11.049-28.379-26.813a34.235,34.235,0,0,0,11.154-9.251,7.059,7.059,0,0,0,4.6,1.542c3.228,0,5.846-3.8,5.846-5.974s-2.618-1.9-5.846-1.9c-.12,0-.241.016-.361.024a55.25,55.25,0,0,0,5.661-15.041c2.361.152,4.8.249,7.323.249,10.391,0,19.634-1.357,25.616-3.461a2.624,2.624,0,0,1,2.072.161,2.582,2.582,0,0,1,1.285,1.638,60.593,60.593,0,0,1,1.839,14.9C-985.011-1043.534-998.807-1023.869-1015.823-1023.869Zm12.623-42.4c-3.228,0-5.846-.273-5.846,1.9s2.618,5.974,5.846,5.974,5.846-1.767,5.846-3.943S-999.971-1066.268-1003.2-1066.268Zm-12.623,14.35a12.6,12.6,0,0,0-12.6,12.6,11.806,11.806,0,0,0,.321,2.626.7.7,0,0,0,.458.49.7.7,0,0,0,.658-.129c2.4-2.016,6.48-3.357,11.162-3.357s8.769,1.341,11.17,3.357a.653.653,0,0,0,.658.129.691.691,0,0,0,.45-.49,11.361,11.361,0,0,0,.321-2.626A12.6,12.6,0,0,0-1015.823-1051.918Z" transform="translate(1120.44 1152.52)" fill="#0D293C"/>
</svg>
