<svg xmlns="http://www.w3.org/2000/svg" width="169.228" height="169.22" viewBox="0 0 169.228 169.22">
  <path id="Caminho_2035" data-name="Caminho 2035" d="M-579.86-1512a84.611,84.611,0,0,0-84.614,84.606,84.613,84.613,0,0,0,84.614,84.614,84.613,84.613,0,0,0,84.614-84.614A84.611,84.611,0,0,0-579.86-1512Zm-40.44,53.963a2.015,2.015,0,0,1,2.016-2.008h76.736a2.008,2.008,0,0,1,2.008,2.008v47.129a2.015,2.015,0,0,1-2.008,2.016h-76.736a2.022,2.022,0,0,1-2.016-2.016Zm76.487,62.258h-72.215c-11.331,0-12.792-8.97-12.808-9.058a.488.488,0,0,1,.112-.4.517.517,0,0,1,.377-.169h96.86a.517.517,0,0,1,.377.169.517.517,0,0,1,.112.4C-531.012-1404.746-532.474-1395.776-543.812-1395.776Zm-2.762-57.231h-66.691v37.083h66.691Z" transform="translate(664.474 1511.997)" fill="#0D293C"/>
</svg>
